<mxfile host="app.diagrams.net" modified="2024-06-16T04:05:15.303Z" agent="Mozilla/5.0 (Windows NT 10.0; Win64; x64) AppleWebKit/537.36 (KHTML, like Gecko) Chrome/126.0.0.0 Safari/537.36" etag="7sk28ElBBY1lrdtdeTw8" version="24.5.4" type="github">
  <diagram id="C5RBs43oDa-KdzZeNtuy" name="Page-1">
    <mxGraphModel dx="2049" dy="1111" grid="1" gridSize="10" guides="1" tooltips="1" connect="1" arrows="1" fold="1" page="1" pageScale="1" pageWidth="827" pageHeight="1169" math="0" shadow="0">
      <root>
        <mxCell id="WIyWlLk6GJQsqaUBKTNV-0" />
        <mxCell id="WIyWlLk6GJQsqaUBKTNV-1" parent="WIyWlLk6GJQsqaUBKTNV-0" />
        <mxCell id="WIyWlLk6GJQsqaUBKTNV-2" value="" style="rounded=0;html=1;jettySize=auto;orthogonalLoop=1;fontSize=11;endArrow=block;endFill=0;endSize=8;strokeWidth=1;shadow=0;labelBackgroundColor=none;edgeStyle=orthogonalEdgeStyle;" parent="WIyWlLk6GJQsqaUBKTNV-1" source="WIyWlLk6GJQsqaUBKTNV-3" edge="1">
          <mxGeometry relative="1" as="geometry">
            <mxPoint x="220" y="170" as="targetPoint" />
          </mxGeometry>
        </mxCell>
        <mxCell id="WIyWlLk6GJQsqaUBKTNV-3" value="Usuario ingresa a la plataforma" style="rounded=1;whiteSpace=wrap;html=1;fontSize=12;glass=0;strokeWidth=1;shadow=0;" parent="WIyWlLk6GJQsqaUBKTNV-1" vertex="1">
          <mxGeometry x="160" y="80" width="120" height="40" as="geometry" />
        </mxCell>
        <mxCell id="yG0mUwWZXCdYiq2zqo66-2" value="" style="edgeStyle=orthogonalEdgeStyle;rounded=0;orthogonalLoop=1;jettySize=auto;html=1;" edge="1" parent="WIyWlLk6GJQsqaUBKTNV-1" source="yG0mUwWZXCdYiq2zqo66-0" target="yG0mUwWZXCdYiq2zqo66-1">
          <mxGeometry relative="1" as="geometry" />
        </mxCell>
        <mxCell id="yG0mUwWZXCdYiq2zqo66-0" value="Búsqueda de hoteles&amp;nbsp;" style="rounded=1;whiteSpace=wrap;html=1;" vertex="1" parent="WIyWlLk6GJQsqaUBKTNV-1">
          <mxGeometry x="160" y="140" width="120" height="60" as="geometry" />
        </mxCell>
        <mxCell id="yG0mUwWZXCdYiq2zqo66-4" value="" style="edgeStyle=orthogonalEdgeStyle;rounded=0;orthogonalLoop=1;jettySize=auto;html=1;" edge="1" parent="WIyWlLk6GJQsqaUBKTNV-1" source="yG0mUwWZXCdYiq2zqo66-1" target="yG0mUwWZXCdYiq2zqo66-3">
          <mxGeometry relative="1" as="geometry" />
        </mxCell>
        <mxCell id="yG0mUwWZXCdYiq2zqo66-1" value="Selección de hotel y fechas" style="rounded=1;whiteSpace=wrap;html=1;" vertex="1" parent="WIyWlLk6GJQsqaUBKTNV-1">
          <mxGeometry x="160" y="220" width="120" height="60" as="geometry" />
        </mxCell>
        <mxCell id="yG0mUwWZXCdYiq2zqo66-7" value="" style="edgeStyle=orthogonalEdgeStyle;rounded=0;orthogonalLoop=1;jettySize=auto;html=1;" edge="1" parent="WIyWlLk6GJQsqaUBKTNV-1" source="yG0mUwWZXCdYiq2zqo66-3" target="yG0mUwWZXCdYiq2zqo66-6">
          <mxGeometry relative="1" as="geometry" />
        </mxCell>
        <mxCell id="yG0mUwWZXCdYiq2zqo66-3" value="Visualización de opciones&amp;nbsp;y precios" style="rounded=1;whiteSpace=wrap;html=1;" vertex="1" parent="WIyWlLk6GJQsqaUBKTNV-1">
          <mxGeometry x="160" y="310" width="120" height="60" as="geometry" />
        </mxCell>
        <mxCell id="yG0mUwWZXCdYiq2zqo66-9" value="" style="edgeStyle=orthogonalEdgeStyle;rounded=0;orthogonalLoop=1;jettySize=auto;html=1;" edge="1" parent="WIyWlLk6GJQsqaUBKTNV-1" source="yG0mUwWZXCdYiq2zqo66-6" target="yG0mUwWZXCdYiq2zqo66-8">
          <mxGeometry relative="1" as="geometry" />
        </mxCell>
        <mxCell id="yG0mUwWZXCdYiq2zqo66-6" value="Confirmación de la reserva" style="rounded=1;whiteSpace=wrap;html=1;" vertex="1" parent="WIyWlLk6GJQsqaUBKTNV-1">
          <mxGeometry x="160" y="400" width="120" height="60" as="geometry" />
        </mxCell>
        <mxCell id="yG0mUwWZXCdYiq2zqo66-11" value="" style="edgeStyle=orthogonalEdgeStyle;rounded=0;orthogonalLoop=1;jettySize=auto;html=1;" edge="1" parent="WIyWlLk6GJQsqaUBKTNV-1" source="yG0mUwWZXCdYiq2zqo66-8" target="yG0mUwWZXCdYiq2zqo66-10">
          <mxGeometry relative="1" as="geometry" />
        </mxCell>
        <mxCell id="yG0mUwWZXCdYiq2zqo66-8" value="Pago en línea" style="rounded=1;whiteSpace=wrap;html=1;" vertex="1" parent="WIyWlLk6GJQsqaUBKTNV-1">
          <mxGeometry x="160" y="490" width="120" height="60" as="geometry" />
        </mxCell>
        <mxCell id="yG0mUwWZXCdYiq2zqo66-13" value="" style="edgeStyle=orthogonalEdgeStyle;rounded=0;orthogonalLoop=1;jettySize=auto;html=1;" edge="1" parent="WIyWlLk6GJQsqaUBKTNV-1" source="yG0mUwWZXCdYiq2zqo66-10" target="yG0mUwWZXCdYiq2zqo66-12">
          <mxGeometry relative="1" as="geometry" />
        </mxCell>
        <mxCell id="yG0mUwWZXCdYiq2zqo66-10" value="Envío de confirmación al&amp;nbsp;usuario y hotel" style="rounded=1;whiteSpace=wrap;html=1;" vertex="1" parent="WIyWlLk6GJQsqaUBKTNV-1">
          <mxGeometry x="160" y="580" width="120" height="60" as="geometry" />
        </mxCell>
        <mxCell id="yG0mUwWZXCdYiq2zqo66-15" value="" style="edgeStyle=orthogonalEdgeStyle;rounded=0;orthogonalLoop=1;jettySize=auto;html=1;" edge="1" parent="WIyWlLk6GJQsqaUBKTNV-1" source="yG0mUwWZXCdYiq2zqo66-12" target="yG0mUwWZXCdYiq2zqo66-14">
          <mxGeometry relative="1" as="geometry" />
        </mxCell>
        <mxCell id="yG0mUwWZXCdYiq2zqo66-17" value="Sí" style="edgeLabel;html=1;align=center;verticalAlign=middle;resizable=0;points=[];" vertex="1" connectable="0" parent="yG0mUwWZXCdYiq2zqo66-15">
          <mxGeometry x="-0.1333" relative="1" as="geometry">
            <mxPoint as="offset" />
          </mxGeometry>
        </mxCell>
        <mxCell id="yG0mUwWZXCdYiq2zqo66-26" style="edgeStyle=orthogonalEdgeStyle;rounded=0;orthogonalLoop=1;jettySize=auto;html=1;exitX=1;exitY=0.5;exitDx=0;exitDy=0;entryX=1;entryY=0.5;entryDx=0;entryDy=0;" edge="1" parent="WIyWlLk6GJQsqaUBKTNV-1" source="yG0mUwWZXCdYiq2zqo66-12" target="yG0mUwWZXCdYiq2zqo66-24">
          <mxGeometry relative="1" as="geometry" />
        </mxCell>
        <mxCell id="yG0mUwWZXCdYiq2zqo66-27" value="No" style="edgeLabel;html=1;align=center;verticalAlign=middle;resizable=0;points=[];" vertex="1" connectable="0" parent="yG0mUwWZXCdYiq2zqo66-26">
          <mxGeometry x="-0.539" y="-3" relative="1" as="geometry">
            <mxPoint x="3" y="14" as="offset" />
          </mxGeometry>
        </mxCell>
        <mxCell id="yG0mUwWZXCdYiq2zqo66-12" value="[Modificaciones/cancelaciones?]&amp;nbsp;" style="rhombus;whiteSpace=wrap;html=1;rounded=1;" vertex="1" parent="WIyWlLk6GJQsqaUBKTNV-1">
          <mxGeometry x="320" y="710" width="230" height="100" as="geometry" />
        </mxCell>
        <mxCell id="yG0mUwWZXCdYiq2zqo66-19" value="" style="edgeStyle=orthogonalEdgeStyle;rounded=0;orthogonalLoop=1;jettySize=auto;html=1;" edge="1" parent="WIyWlLk6GJQsqaUBKTNV-1" source="yG0mUwWZXCdYiq2zqo66-14" target="yG0mUwWZXCdYiq2zqo66-18">
          <mxGeometry relative="1" as="geometry" />
        </mxCell>
        <mxCell id="yG0mUwWZXCdYiq2zqo66-14" value="Soporte al cliente" style="whiteSpace=wrap;html=1;rounded=1;" vertex="1" parent="WIyWlLk6GJQsqaUBKTNV-1">
          <mxGeometry x="140" y="730" width="120" height="60" as="geometry" />
        </mxCell>
        <mxCell id="yG0mUwWZXCdYiq2zqo66-23" value="" style="edgeStyle=orthogonalEdgeStyle;rounded=0;orthogonalLoop=1;jettySize=auto;html=1;" edge="1" parent="WIyWlLk6GJQsqaUBKTNV-1" source="yG0mUwWZXCdYiq2zqo66-18" target="yG0mUwWZXCdYiq2zqo66-22">
          <mxGeometry relative="1" as="geometry" />
        </mxCell>
        <mxCell id="yG0mUwWZXCdYiq2zqo66-18" value="Gestión de modificaciones /cancelaciones" style="whiteSpace=wrap;html=1;rounded=1;" vertex="1" parent="WIyWlLk6GJQsqaUBKTNV-1">
          <mxGeometry x="140" y="820" width="120" height="60" as="geometry" />
        </mxCell>
        <mxCell id="yG0mUwWZXCdYiq2zqo66-25" value="" style="edgeStyle=orthogonalEdgeStyle;rounded=0;orthogonalLoop=1;jettySize=auto;html=1;" edge="1" parent="WIyWlLk6GJQsqaUBKTNV-1" source="yG0mUwWZXCdYiq2zqo66-22" target="yG0mUwWZXCdYiq2zqo66-24">
          <mxGeometry relative="1" as="geometry" />
        </mxCell>
        <mxCell id="yG0mUwWZXCdYiq2zqo66-22" value="Soporte al cliente (si necesario)" style="whiteSpace=wrap;html=1;rounded=1;" vertex="1" parent="WIyWlLk6GJQsqaUBKTNV-1">
          <mxGeometry x="140" y="900" width="120" height="60" as="geometry" />
        </mxCell>
        <mxCell id="yG0mUwWZXCdYiq2zqo66-24" value="Fin del proceso" style="whiteSpace=wrap;html=1;rounded=1;" vertex="1" parent="WIyWlLk6GJQsqaUBKTNV-1">
          <mxGeometry x="140" y="990" width="120" height="60" as="geometry" />
        </mxCell>
      </root>
    </mxGraphModel>
  </diagram>
</mxfile>
